<svg width="288" height="274" viewBox="0 0 288 274" fill="none" xmlns="http://www.w3.org/2000/svg">
<path opacity="0.2" fill-rule="evenodd" clip-rule="evenodd" d="M287.247 137.045C287.247 140.225 287.132 143.381 286.906 146.507V204.595V204.918V205.874V206.197V272.468V273.747H285.563H216.043H215.703H214.7H214.36H144.839H144.499H143.496H143.156H73.6359H73.296H72.2929H71.9531H2.43271H1.08974V272.468V206.197V205.874V204.918V204.595V146.49C0.864484 143.369 0.75 140.22 0.75 137.045C0.75 133.87 0.864484 130.72 1.08974 127.599V70.4504V70.1276H1.08931V68.849V2.57723V1.29862H2.43228H71.9526H73.2956V1.29902H73.6359H134.049C137.336 1.08479 140.654 0.975906 143.998 0.975906C147.343 0.975906 150.661 1.08479 153.948 1.29902H214.36H214.7H215.703H216.043H285.563H286.906V2.57763V68.8494V70.128L286.906 70.4504V127.583C287.132 130.709 287.247 133.864 287.247 137.045ZM285.563 70.4504V116.116C282.903 99.7487 277.172 84.3442 268.948 70.4504H285.563ZM285.563 127.628C284.059 106.935 277.639 87.5268 267.403 70.4504H216.043V136.722H285.563V127.628ZM285.563 68.8494H267.985C255.49 48.3966 237.547 31.32 216.043 19.4113V2.57763H285.563V68.8494ZM266.428 68.8494C254.201 49.0868 236.821 32.5463 216.043 20.893V68.8494H266.428ZM214.36 2.57763V18.4937C199.671 10.6108 183.371 5.11984 166.046 2.57763H214.36ZM214.36 19.9639C196.318 10.1604 175.793 4.01101 153.901 2.57763H144.839V68.8494H214.36V19.9639ZM73.6359 2.57763H121.951C104.626 5.11991 88.3252 10.6111 73.6359 18.4944V2.57763ZM134.095 2.57763C112.204 4.01105 91.678 10.1607 73.6359 19.9645V68.8494H143.156V2.57763H134.095ZM71.9526 2.57723V19.4122C50.4494 31.3207 32.507 48.3969 20.0123 68.849H2.43228V2.57723H71.9526ZM71.9526 20.8938C51.1747 32.547 33.7958 49.087 21.5688 68.849H71.9526V20.8938ZM2.43271 70.4504H19.0493C10.8233 84.3463 5.09216 99.7533 2.43271 116.124V70.4504ZM2.43271 138.324V146.445C3.96205 167.532 10.5972 187.284 21.1722 204.595H71.9531V138.324H2.43271ZM2.43271 204.595V157.966C5.15332 174.713 11.0885 190.451 19.6207 204.595H2.43271ZM2.43271 206.197H20.602C33.0687 226.225 50.7856 242.955 71.9531 254.677V272.468H2.43271V206.197ZM73.6359 272.468V255.595C90.5691 264.683 109.643 270.591 129.96 272.468H73.6359ZM73.6359 254.125C94.1468 265.27 117.868 271.693 143.156 271.833V206.197H73.6359V254.125ZM214.36 272.468H158.036C178.353 270.591 197.427 264.683 214.36 255.596V272.468ZM144.839 271.833C170.128 271.693 193.849 265.271 214.36 254.125V206.197H144.839V271.833ZM216.043 272.468V254.678C237.211 242.956 254.928 226.225 267.395 206.197H285.563V272.468H216.043ZM216.043 253.196C236.485 241.732 253.638 225.537 265.831 206.197H216.043V253.196ZM216.043 204.595H266.825C277.397 187.289 284.031 167.542 285.563 146.462V138.324H216.043V204.595ZM285.563 157.973C282.842 174.717 276.907 190.453 268.376 204.595H285.563V157.973ZM22.1661 206.197C34.3589 225.536 51.5109 241.731 71.9531 253.196V206.197H22.1661ZM20.5936 70.4504C10.3552 87.5313 3.93396 106.945 2.43271 127.644V136.722H71.9531V70.4504H20.5936ZM73.6359 70.4504H143.156V74.814H112.688H107.638H89.4581V136.722H73.6359V70.4504ZM89.4581 138.324H73.6359V204.595H143.156V138.324H112.688V199.748H89.4581V138.324ZM112.688 136.722H143.156V96.9177H112.688V136.722ZM144.839 74.814H178.338H183.388H201.568V136.722H214.36V70.4504H144.839V74.814ZM201.568 138.324H214.36V204.595H144.839V138.324H178.338V199.748H201.568V138.324ZM178.338 136.722V96.9177H144.839V136.722H178.338Z" fill="white"/>
</svg>
